<?xml version="1.0" encoding="UTF-8" standalone="no"?>
<!-- Created with Inkscape (http://www.inkscape.org/) -->

<svg
   xmlns:dc="http://purl.org/dc/elements/1.1/"
   xmlns:cc="http://creativecommons.org/ns#"
   xmlns:rdf="http://www.w3.org/1999/02/22-rdf-syntax-ns#"
   xmlns:svg="http://www.w3.org/2000/svg"
   xmlns="http://www.w3.org/2000/svg"
   xmlns:sodipodi="http://sodipodi.sourceforge.net/DTD/sodipodi-0.dtd"
   xmlns:inkscape="http://www.inkscape.org/namespaces/inkscape"
   width="54.690479mm"
   height="54.690479mm"
   viewBox="0 0 193.78516 193.78516"
   id="svg5924"
   version="1.1"
   inkscape:version="0.91 r13725"
   sodipodi:docname="slidebg-plain_topleft.svg">
  <defs
     id="defs5926" />
  <sodipodi:namedview
     id="base"
     pagecolor="#ffffff"
     bordercolor="#666666"
     borderopacity="1.0"
     inkscape:pageopacity="0.0"
     inkscape:pageshadow="2"
     inkscape:zoom="0.35"
     inkscape:cx="1097.6069"
     inkscape:cy="-185.96457"
     inkscape:document-units="px"
     inkscape:current-layer="layer1"
     showgrid="false"
     fit-margin-top="0"
     fit-margin-left="0"
     fit-margin-right="0"
     fit-margin-bottom="0"
     inkscape:window-width="1920"
     inkscape:window-height="1161"
     inkscape:window-x="0"
     inkscape:window-y="18"
     inkscape:window-maximized="0" />
  <metadata
     id="metadata5929">
    <rdf:RDF>
      <cc:Work
         rdf:about="">
        <dc:format>image/svg+xml</dc:format>
        <dc:type
           rdf:resource="http://purl.org/dc/dcmitype/StillImage" />
        <dc:title></dc:title>
      </cc:Work>
    </rdf:RDF>
  </metadata>
  <g
     inkscape:label="Layer 1"
     inkscape:groupmode="layer"
     id="layer1"
     transform="translate(722.60687,-152.61248)">
    <g
       transform="translate(-322.46042,330.3976)"
       id="g5909">
      <path
         inkscape:connector-curvature="0"
         id="rect5874"
         d="m -400.14645,-177.78512 0,193.785157 193.78516,-193.785157 -193.78516,0 z"
         style="fill:#f8f8f8;fill-opacity:1;stroke:none;stroke-opacity:1" />
      <path
         inkscape:connector-curvature="0"
         id="polyline4660"
         d="m -296.60153,-176.78512 0,4.57226 -11.53711,0 0,0.86329 12.40039,0 0,-5.43555 -0.86328,0 z m 5.98438,0 0,10.55469 -23.50586,0 0,0.86328 24.36914,0 0,-11.41797 -0.86328,0 z m 6.09961,0 0,16.53906 -35.5918,0 0,0.86328 36.45508,0 0,-17.40234 -0.86328,0 z m 5.98437,0 0,22.52539 -47.99023,0 0,47.99023 -48.10743,0 0,48.107428 -25.51562,0 0,0.863281 25.51562,0 0,47.126953 -25.51562,0 0,0.8632824 26.37695,0 0,-47.9902354 48.10743,0 0,-48.107429 47.99218,0 0,-47.99023 47.99219,0 0,-23.38867 -0.86328,0 0,22.52539 -47.12891,0 0,-22.52539 -0.86328,0 z m 5.98438,0 0,17.40234 36.02148,0 0.43164,0 0.43164,0 0,-17.40234 -0.86328,0 0,16.53906 -35.1582,0 0,-16.53906 -0.86328,0 z m 5.98437,0 0,11.41797 24.91602,0 0,-11.41797 -0.86328,0 0,10.55469 -23.18946,0 0,-10.55469 -0.86328,0 z m 5.98438,0 0,5.43555 12.83203,0 0,-0.43165 0,-5.0039 -0.86328,0 0,4.57226 -11.10547,0 0,-4.57226 -0.86328,0 z m 36.02343,0 0,16.9707 0.86328,0 0,-16.9707 -0.86328,0 z m 5.98243,0 0,10.98633 0.86328,0 0,-10.98633 -0.86328,0 z m 5.98632,0 0,5.0039 0.86329,0 0,-5.0039 -0.86329,0 z m -113.07421,23.38867 47.1289,0 0,47.12695 -47.1289,0 0,-47.12695 z m 53.11328,5.11914 0,36.45508 0.86328,0 0,-35.5918 35.58984,0 0,-0.86328 -36.45312,0 z m -47.99219,0.002 0,0.43164 0,36.45313 36.88672,0 0,-36.88477 -36.88672,0 z m -12.08399,0.42969 0,35.5918 -35.4746,0 0,0.86328 36.33789,0 0,-36.45508 -0.86329,0 z m 12.94727,0.4336 35.16016,0 0,35.1582 -35.16016,0 0,-35.1582 z m 5.12109,5.23632 0,0.43164 0,24.48438 24.91797,0 0,-24.91602 -24.91797,0 z m 47.99219,0 0,24.36914 0.86328,0 0,-23.50586 23.62305,0 0,-0.86328 -24.48633,0 z m -72.04492,0.43164 0,23.50586 -23.50586,0 0,0.86328 24.36914,0 0,-24.36914 -0.86328,0 z m 24.91601,0.43164 23.19141,0 0,23.18946 -23.19141,0 0,-23.18946 z m 5.12305,5.1211 0,0.43164 0,12.40039 12.83203,0 0,-12.83203 -12.83203,0 z m 47.99024,0 0,12.40039 0.86328,0 0,-11.53906 11.53711,0 0,-0.86133 -12.40039,0 z m -84.01368,0.43164 0,11.53711 -11.53711,0 0,0.86328 12.4004,0 0,-12.40039 -0.86329,0 z m 36.88477,0.43164 11.10742,0 0,11.10547 -11.10742,0 0,-11.10547 z m -66.06055,29.92187 47.2461,0 0,47.244148 -47.2461,0 0,-47.244148 z m 5.23828,5.23633 0,0.431643 0,36.455081 36.88477,0 0,-36.886724 -36.88477,0 z m 47.99024,0 0,36.337896 0.86328,0 0,-35.474613 35.5918,0 0,-0.863283 -36.45508,0 z m -60.07422,0.431643 0,35.476566 -19.53125,0 0,0.861328 20.39453,0 0,-36.337894 -0.86328,0 z m 12.94727,0.43164 35.1582,0 0,35.16016 -35.1582,0 0,-35.16016 z m 5.12109,5.121098 0,0.43164 0,24.486328 24.91601,0 0,-24.917968 -24.91601,0 z m 47.99219,0 0,24.371093 0.86328,0 0,-23.507812 23.50586,0 0,-0.863281 -24.36914,0 z m -72.04688,0.43164 0,23.507813 -13.54492,0 0,0.863281 14.4082,0 0,-24.371094 -0.86328,0 z m 24.91797,0.431641 23.18945,0 0,23.191406 -23.18945,0 0,-23.191406 z m 5.12109,5.123047 0,0.43164 0,12.398438 12.83204,0 0,-12.830078 -12.83204,0 z m 47.99219,0 0,12.398437 0.86328,0 0,-11.535156 11.53711,0 0,-0.863281 -12.40039,0 z m -84.01562,0.43164 0,11.535156 -7.56055,0 0,0.863282 8.42383,0 0,-12.398438 -0.86328,0 z m 36.88672,0.431641 11.10546,0 0,11.103515 -11.10546,0 0,-11.103515 z m -44.44727,35.158153 0,0.863281 19.53125,0 0,35.158203 -19.53125,0 0,0.863282 20.39453,0 0,-36.884766 -20.39453,0 z m 31.61523,0 0,36.453125 0.86329,0 0,-35.589844 35.4746,0 0,-0.863281 -36.33789,0 z m -31.61523,5.984375 0,0.863281 13.66016,0 0,23.189453 -13.66016,0 0,0.863282 14.52344,0 0,-24.916016 -14.52344,0 z m 37.59961,0 0,24.369141 0.86328,0 0,-23.50586 23.50586,0 0,-0.863281 -24.36914,0 z m -37.59961,5.984375 0,0.863281 7.56055,0 0,11.105469 -7.56055,0 0,0.863281 8.42383,0 0,-12.832031 -8.42383,0 z m 43.58398,0 0,12.400391 0.86329,0 0,-11.53711 11.53711,0 0,-0.863281 -12.4004,0 z m -43.58398,36.0234379 0,0.8632813 19.96289,0 0,-0.8632813 -19.96289,0 z m 0,5.984375 0,0.8613281 13.97656,0 0,-0.8613281 -13.97656,0 z m 0,5.9824219 0,0.8632812 7.99219,0 0,-0.8632812 -7.99219,0 z"
         style="color:#000000;font-style:normal;font-variant:normal;font-weight:normal;font-stretch:normal;font-size:medium;line-height:normal;font-family:sans-serif;text-indent:0;text-align:start;text-decoration:none;text-decoration-line:none;text-decoration-style:solid;text-decoration-color:#000000;letter-spacing:normal;word-spacing:normal;text-transform:none;direction:ltr;block-progression:tb;writing-mode:lr-tb;baseline-shift:baseline;text-anchor:start;white-space:normal;clip-rule:nonzero;display:inline;overflow:visible;visibility:visible;opacity:1;isolation:auto;mix-blend-mode:normal;color-interpolation:sRGB;color-interpolation-filters:linearRGB;solid-color:#000000;solid-opacity:1;fill:#d8d8d8;fill-opacity:1;fill-rule:nonzero;stroke:none;stroke-width:0.75;stroke-linecap:butt;stroke-linejoin:miter;stroke-miterlimit:10;stroke-dasharray:none;stroke-dashoffset:0;stroke-opacity:1;color-rendering:auto;image-rendering:auto;shape-rendering:auto;text-rendering:auto;enable-background:accumulate" />
    </g>
  </g>
</svg>
